<svg width="217" height="35" viewBox="0 0 217 35" fill="none" xmlns="http://www.w3.org/2000/svg">
<g clip-path="url(#clip0)">
<path d="M41.7695 29.107C38.5722 29.107 35.8955 28.029 33.7395 25.873C31.5835 23.717 30.5055 21.0257 30.5055 17.799C30.5055 14.631 31.5835 11.9617 33.7395 9.79101C35.8955 7.63501 38.5722 6.55701 41.7695 6.55701C44.9815 6.55701 47.7388 7.56167 50.0415 9.57101L47.0495 12.849C45.5095 11.6463 43.7495 11.045 41.7695 11.045C39.7455 11.0597 38.1102 11.6977 36.8635 12.959C35.6315 14.2057 35.0155 15.8043 35.0155 17.755C35.0155 19.8523 35.6388 21.517 36.8855 22.749C38.1322 23.981 39.7675 24.597 41.7915 24.597C43.4195 24.597 44.6662 24.2817 45.5315 23.651V19.779L42.5395 19.801V15.577H50.0415V26.115C47.7535 28.1097 44.9962 29.107 41.7695 29.107ZM58.1155 14.059V15.731C59.2008 14.631 60.5135 14.081 62.0535 14.081C62.5375 14.081 62.9995 14.1177 63.4395 14.191L62.7795 18.349C62.2955 17.909 61.5988 17.6743 60.6895 17.645C59.6628 17.7183 58.8048 18.459 58.1155 19.867V29.107H53.9135V14.521L58.1155 14.059ZM73.0095 29.261C70.8242 29.261 68.9982 28.5277 67.5315 27.061C66.0795 25.5943 65.3535 23.7757 65.3535 21.605C65.3535 19.4197 66.0795 17.5937 67.5315 16.127C68.9982 14.6603 70.8242 13.927 73.0095 13.927C75.1948 13.927 77.0208 14.6603 78.4875 16.127C79.9542 17.5937 80.6875 19.4197 80.6875 21.605C80.6875 23.7903 79.9542 25.609 78.4875 27.061C77.0208 28.5277 75.1948 29.261 73.0095 29.261ZM73.0095 25.631C74.1388 25.631 75.0628 25.2423 75.7815 24.465C76.5002 23.7023 76.8595 22.749 76.8595 21.605C76.8595 20.461 76.5002 19.5077 75.7815 18.745C75.0628 17.9677 74.1315 17.579 72.9875 17.579C71.8582 17.579 70.9342 17.9677 70.2155 18.745C69.5115 19.5077 69.1595 20.461 69.1595 21.605C69.1595 22.749 69.5115 23.7023 70.2155 24.465C70.9342 25.2423 71.8655 25.631 73.0095 25.631ZM92.6115 23.783V14.059H96.8135V29.107H92.6115V27.743C91.5995 28.6523 90.3968 29.107 89.0035 29.107C87.0968 29.107 85.6448 28.5277 84.6475 27.369C83.6355 26.2103 83.1295 24.883 83.1295 23.387V14.059H87.3535V22.331C87.3535 23.3283 87.6028 24.1057 88.1015 24.663C88.6002 25.2203 89.3555 25.5137 90.3675 25.543C91.2475 25.4843 91.9955 24.8977 92.6115 23.783ZM104.601 35.443L100.399 35.421V14.521L104.601 14.059V15.269C105.731 14.4623 106.838 14.059 107.923 14.059C110.226 14.059 112.052 14.8143 113.401 16.325C114.765 17.821 115.447 19.5737 115.447 21.583C115.447 23.5923 114.765 25.345 113.401 26.841C112.052 28.3517 110.226 29.107 107.923 29.107C106.413 29.0043 105.305 28.5937 104.601 27.875V35.443ZM104.601 20.219V22.661C104.807 24.3477 105.863 25.3377 107.769 25.631C110.175 25.4403 111.531 24.1937 111.839 21.891C111.737 19.075 110.38 17.6157 107.769 17.513C105.863 17.821 104.807 18.723 104.601 20.219ZM125.237 29.261C123.052 29.261 121.233 28.5277 119.781 27.061C118.315 25.5943 117.581 23.7757 117.581 21.605C117.581 19.4197 118.315 17.5937 119.781 16.127C121.233 14.6603 123.052 13.927 125.237 13.927C127.423 13.927 129.249 14.6603 130.715 16.127C132.182 17.5937 132.915 19.4197 132.915 21.605C132.915 23.7903 132.182 25.609 130.715 27.061C129.249 28.5277 127.423 29.261 125.237 29.261ZM125.237 25.631C126.381 25.631 127.305 25.2423 128.009 24.465C128.728 23.7023 129.087 22.749 129.087 21.605C129.087 20.461 128.728 19.5077 128.009 18.745C127.305 17.9677 126.374 17.579 125.215 17.579C124.086 17.579 123.162 17.9677 122.443 18.745C121.739 19.5077 121.387 20.461 121.387 21.605C121.387 22.749 121.739 23.7023 122.443 24.465C123.162 25.2423 124.093 25.631 125.237 25.631ZM139.933 19.493V29.107H135.709V14.521L139.933 14.059V15.401C140.872 14.521 142.075 14.081 143.541 14.081C145.433 14.081 146.885 14.653 147.897 15.797C148.997 14.653 150.647 14.081 152.847 14.081C154.754 14.081 156.213 14.653 157.225 15.797C158.223 16.9557 158.721 18.2903 158.721 19.801V29.107H154.519V20.835C154.519 19.8377 154.292 19.0603 153.837 18.503C153.383 17.9603 152.649 17.6743 151.637 17.645C150.801 17.7037 150.083 18.2537 149.481 19.295C149.423 19.603 149.394 19.9183 149.394 20.241V29.107H145.191V20.835C145.191 19.8377 144.964 19.0603 144.509 18.503C144.055 17.9603 143.321 17.6743 142.309 17.645C141.385 17.7037 140.593 18.3197 139.933 19.493ZM164.375 18.437L162.725 15.885C164.632 14.6823 166.839 14.081 169.348 14.081C171.152 14.081 172.574 14.5797 173.615 15.577C174.671 16.589 175.199 18.0923 175.199 20.087V29.107H170.997V27.919C169.766 28.711 168.658 29.107 167.675 29.107C165.681 29.107 164.177 28.6817 163.165 27.831C162.168 26.9803 161.669 25.807 161.669 24.311C161.669 22.903 162.146 21.649 163.1 20.549C164.038 19.449 165.563 18.899 167.675 18.899C168.658 18.899 169.766 19.1997 170.997 19.801V19.339C170.968 18.239 170.161 17.6377 168.577 17.535C166.773 17.535 165.373 17.8357 164.375 18.437ZM170.997 24.597V22.903C170.602 22.1257 169.648 21.737 168.137 21.737C166.333 21.9423 165.38 22.6463 165.277 23.849C165.38 25.037 166.333 25.6823 168.137 25.785C169.648 25.785 170.602 25.389 170.997 24.597ZM183.186 19.559V29.107H178.961V14.521L183.186 14.059V15.423C184.197 14.5283 185.4 14.081 186.794 14.081C188.7 14.081 190.152 14.653 191.149 15.797C192.147 16.9557 192.645 18.2903 192.645 19.801V29.107H188.443V20.835C188.443 19.8377 188.194 19.0603 187.695 18.503C187.182 17.9603 186.419 17.6743 185.407 17.645C184.542 17.7037 183.801 18.3417 183.186 19.559ZM200.389 29.107H196.187V14.059H200.389V29.107ZM196.033 10.473C196.033 11.0743 196.232 11.573 196.628 11.969C197.038 12.365 197.595 12.563 198.299 12.563C198.989 12.563 199.539 12.365 199.949 11.969C200.345 11.573 200.544 11.0743 200.544 10.473C200.544 9.87167 200.345 9.36567 199.949 8.95501C199.539 8.54434 198.974 8.33901 198.255 8.33901C197.581 8.33901 197.038 8.54434 196.628 8.95501C196.232 9.36567 196.033 9.87167 196.033 10.473ZM205.999 18.437L204.349 15.885C206.256 14.6823 208.464 14.081 210.971 14.081C212.775 14.081 214.205 14.5797 215.261 15.577C216.303 16.589 216.824 18.0923 216.824 20.087V29.107H212.621V27.919C211.404 28.711 210.304 29.107 209.321 29.107C207.312 29.107 205.809 28.6817 204.811 27.831C203.799 26.9803 203.294 25.807 203.294 24.311C203.294 22.903 203.77 21.649 204.723 20.549C205.662 19.449 207.195 18.899 209.321 18.899C210.289 18.899 211.389 19.1997 212.621 19.801V19.339C212.607 18.239 211.807 17.6377 210.223 17.535C208.42 17.535 207.011 17.8357 205.999 18.437ZM212.621 24.597V22.903C212.225 22.1257 211.272 21.737 209.761 21.737C207.957 21.9423 207.004 22.6463 206.902 23.849C207.004 25.037 207.957 25.6823 209.761 25.785C211.272 25.785 212.225 25.389 212.621 24.597Z" fill="#F3F4F6"/>
<path d="M11.5 28.786C14.524 28.786 17.359 27.625 19.492 25.492C21.625 23.359 22.786 20.524 22.786 17.5C22.786 14.476 21.625 11.641 19.492 9.508C17.359 7.375 14.524 6.214 11.5 6.214C8.47601 6.214 5.641 7.375 3.508 9.508C1.375 11.641 0.214005 14.476 0.214005 17.5C0.214005 20.524 1.375 23.359 3.508 25.492C5.641 27.625 8.47601 28.786 11.5 28.786ZM12.148 26.869C11.932 26.896 11.716 26.896 11.5 26.896C11.203 26.896 10.906 26.869 10.609 26.842C9.637 25.33 8.90801 23.71 8.47601 22.009H13.255C13.417 22.414 13.714 22.792 14.065 23.035C13.606 24.385 12.958 25.654 12.148 26.869V26.869ZM14.713 26.329C15.226 25.384 15.631 24.439 15.955 23.44C16.738 23.278 17.359 22.738 17.656 22.009H19.735C18.655 23.98 16.846 25.519 14.713 26.329ZM20.869 17.5C20.869 18.391 20.734 19.255 20.518 20.092H17.602C17.44 19.741 17.17 19.417 16.846 19.174C16.9 18.58 16.927 17.986 16.927 17.392C16.927 16.555 16.873 15.718 16.765 14.908H20.491C20.761 15.718 20.869 16.609 20.869 17.5V17.5ZM19.735 12.991H16.441C16.09 11.506 15.577 10.102 14.875 8.75201C16.927 9.53501 18.655 11.074 19.735 12.991ZM15.037 17.392C15.037 17.851 15.01 18.31 14.983 18.769C14.227 18.931 13.606 19.417 13.309 20.092H8.098C7.99 19.282 7.909 18.445 7.909 17.635C7.909 17.122 7.93601 16.609 7.99001 16.096C8.69201 15.961 9.25901 15.502 9.61001 14.908H14.875C14.983 15.718 15.037 16.555 15.037 17.392V17.392ZM10.798 8.158C11.041 8.131 11.284 8.13101 11.5 8.13101C11.77 8.13101 12.04 8.131 12.31 8.158C13.282 9.67 14.011 11.29 14.443 12.991H9.74501C9.58301 12.532 9.286 12.127 8.908 11.83C9.394 10.534 10.015 9.319 10.798 8.158ZM8.233 8.698C7.774 9.562 7.36901 10.48 7.04501 11.398C6.20801 11.56 5.533 12.181 5.263 12.964H3.29201C4.34501 11.047 6.1 9.508 8.233 8.698ZM2.13101 17.5C2.13101 16.609 2.266 15.718 2.509 14.908H5.45201C5.61401 15.205 5.85701 15.475 6.12701 15.691C6.07301 16.339 6.019 16.987 6.019 17.635C6.019 18.472 6.07301 19.282 6.18101 20.092H2.509C2.239 19.255 2.13101 18.391 2.13101 17.5ZM6.50501 21.982C6.85601 23.44 7.36901 24.871 8.07101 26.221C6.01901 25.411 4.31801 23.899 3.26501 21.982H6.50501Z" fill="#F3F4F6"/>
</g>
<defs>
<clipPath id="clip0">
<rect width="217" height="35" fill="white"/>
</clipPath>
</defs>
</svg>
